<?xml version="1.0" encoding="UTF-8"?>
<!DOCTYPE svg PUBLIC "-//W3C//DTD SVG 1.1//EN" "http://www.w3.org/Graphics/SVG/1.1/DTD/svg11.dtd">
<!-- Creator: CorelDRAW X8 -->
<svg xmlns="http://www.w3.org/2000/svg" xml:space="preserve" width="4961px" height="3508px" version="1.1" style="shape-rendering:geometricPrecision; text-rendering:geometricPrecision; image-rendering:optimizeQuality; fill-rule:evenodd; clip-rule:evenodd"
viewBox="0 0 4961 3508"
 xmlns:xlink="http://www.w3.org/1999/xlink">
 <defs>
  <style type="text/css">
   <![CDATA[
    .str0 {stroke:black;stroke-width:11.8119}
    .str1 {stroke:black;stroke-width:8.85893}
    .str2 {stroke:black;stroke-width:5.90595}
    .fil0 {fill:black}
    .fil1 {fill:black;fill-rule:nonzero}
   ]]>
  </style>
 </defs>
 <g id="Capa_x0020_1">
  <metadata id="CorelCorpID_0Corel-Layer"/>
  <g id="_2302945732208">
   <g>
    <path id="_6" class="fil0 str0" d="M2122 827c175,-125 906,-554 1078,-332 124,220 -528,836 -757,979 -40,25 -364,247 -430,161 -33,-34 125,-198 156,-231 28,-30 112,-113 108,-136 -51,-14 -241,195 -299,204 14,-62 265,-280 235,-317 -58,-12 -535,571 -658,473 -134,-71 184,-304 169,-358 -37,-46 -426,316 -203,431 116,35 224,-85 285,-126 36,-25 51,-38 88,-57 -14,20 -21,18 -27,49 41,-2 56,-13 93,-23 -242,379 180,240 437,67 266,-174 470,-368 666,-599 109,-140 334,-441 235,-576 -216,-271 -1055,201 -1250,352 -252,186 -1184,859 -903,1163 285,358 1271,-66 1613,-260 266,-153 584,-443 600,-412 29,31 -168,235 -206,290 -43,53 -160,190 -94,266 32,26 105,-32 124,-7 70,133 302,156 456,127 264,-42 802,-131 785,-175 -22,-72 -519,62 -632,80 -239,40 -525,91 -496,-94 3,-14 -8,-18 -21,-18 -36,3 -82,16 -109,8 -46,-27 22,-74 49,-131 67,-95 398,-409 314,-484 -107,-76 -360,160 -688,393 -254,173 -1253,658 -1579,397 -322,-257 642,-951 861,-1104z"/>
    <path id="_5" class="fil0 str0" d="M4180 1703c71,-42 111,-99 90,-128 -21,-29 -95,-18 -165,23 -70,41 -110,99 -89,128 20,28 94,18 164,-23z"/>
   </g>
   <path id="_2" class="fil1 str1" d="M629 2522c4,-1 8,-1 11,0 4,2 6,4 8,8 1,3 1,6 -1,9 -49,95 -97,175 -145,242 -49,66 -95,116 -140,150 -44,34 -86,51 -124,51 -11,0 -22,-1 -33,-4 -34,-10 -62,-35 -84,-74 -21,-40 -33,-90 -37,-150 -4,-61 1,-129 14,-206 14,-81 38,-164 72,-249 40,-101 84,-177 130,-228 38,-41 71,-56 98,-44 19,9 32,29 39,60 6,32 8,72 3,119 -4,48 -11,96 -20,144 -8,48 -20,100 -33,155 -1,4 -3,6 -7,8 -3,2 -7,3 -10,2 -4,-1 -7,-3 -9,-6 -2,-3 -3,-6 -2,-10 15,-59 26,-113 35,-162 9,-50 15,-91 17,-124 3,-33 4,-62 2,-86 -1,-23 -4,-41 -9,-54 -5,-12 -11,-19 -18,-22 -7,-4 -16,-2 -27,5 -11,6 -23,17 -37,31 -43,47 -83,116 -120,207 -36,90 -62,176 -76,258 -20,109 -21,201 -3,276 9,35 21,63 36,84 16,22 34,35 55,41 46,13 102,-11 168,-73 77,-73 157,-190 240,-351 1,-3 4,-6 7,-7zm186 3c4,-1 7,-1 11,1 3,2 5,4 6,8 1,3 0,7 -2,10 -14,19 -30,40 -49,61 -20,21 -41,39 -65,56 -25,17 -45,25 -61,25 -6,0 -11,0 -16,-2 -33,-13 -36,-65 -10,-156 1,-4 3,-6 6,-8 4,-2 7,-2 11,-1 4,1 7,3 9,6 1,3 2,6 1,9 -6,21 -10,40 -13,56 -3,16 -4,28 -3,37 0,8 1,15 2,21 2,5 4,9 5,10 1,1 2,1 3,2 13,5 36,-7 69,-35 34,-27 63,-59 87,-95 2,-3 5,-4 9,-5zm-162 -52c-14,-1 -18,-6 -13,-16 5,-8 11,-13 19,-16 12,-3 19,-1 22,9 2,9 -1,15 -11,20 -5,2 -11,3 -17,3zm427 55c4,-1 8,0 11,1 4,2 6,5 7,8 1,3 0,6 -2,10 -16,26 -31,47 -43,63 -12,15 -24,27 -37,36 -13,9 -25,13 -37,11 -25,-2 -44,-26 -58,-71 -10,-31 -19,-46 -27,-46 -1,-1 -3,0 -6,2 -2,1 -7,5 -13,12 -5,6 -12,15 -19,26 -7,11 -16,27 -28,49 -11,21 -24,47 -37,77 -2,5 -7,8 -13,8 -1,0 -2,-1 -3,-1 -8,-2 -12,-6 -11,-14 5,-36 23,-104 55,-202 4,-10 6,-18 7,-23 2,-4 4,-6 8,-8 3,-2 7,-2 10,-1 4,1 7,3 9,6 2,3 2,6 1,10 -1,3 -4,11 -8,23 -11,34 -19,61 -25,80 16,-27 30,-45 41,-55 12,-11 23,-15 34,-15 13,1 23,6 30,18 8,11 15,27 22,47 11,34 22,52 34,53 6,1 13,-2 22,-9 8,-7 18,-17 27,-30 10,-13 18,-23 23,-31 5,-7 11,-17 18,-28 2,-3 4,-5 8,-6zm595 -242c3,3 4,6 3,9 0,4 -2,7 -6,9 -6,3 -11,3 -17,-1 -23,-7 -187,-8 -493,-2 -31,121 -64,252 -96,393 -39,170 -63,287 -71,351 1,0 2,0 3,0 4,1 6,3 8,6 1,4 1,7 0,10 -3,7 -5,12 -7,16 -1,3 -4,6 -7,10 -4,3 -7,5 -11,5 -2,0 -3,-1 -5,-1 -7,-2 -10,-6 -12,-14 -1,-7 0,-18 2,-30 2,-19 7,-46 13,-81 13,-66 31,-152 55,-258 33,-144 66,-279 99,-406 -33,0 -74,1 -124,3 -78,1 -124,2 -137,2 -4,0 -7,-1 -10,-3 -3,-3 -4,-6 -4,-9 0,-3 1,-5 2,-7 1,-2 3,-3 5,-4 2,-1 4,-2 7,-2 13,0 59,-1 137,-3 48,-1 92,-2 131,-3 16,-58 30,-108 42,-149 1,-3 3,-6 7,-7 3,-2 7,-3 10,-2 4,1 7,3 9,6 2,3 2,7 1,10 -12,39 -25,87 -40,141 146,-3 257,-5 331,-4 75,1 122,3 141,5 19,2 31,5 34,10zm-316 239c3,-1 7,-1 10,1 4,2 6,4 7,8 0,3 0,7 -2,10 -14,19 -30,40 -50,61 -19,21 -41,39 -65,56 -24,17 -44,25 -61,25 -6,0 -11,0 -15,-2 -33,-13 -36,-65 -10,-156 1,-4 3,-6 6,-8 4,-2 7,-2 11,-1 3,1 6,3 8,6 2,3 3,6 2,9 -6,21 -11,40 -13,56 -3,16 -4,28 -4,37 0,8 1,15 3,21 2,5 3,9 4,10 2,1 3,1 4,2 12,5 35,-7 69,-35 33,-27 62,-59 87,-95 2,-3 5,-4 9,-5zm-162 -52c-14,-1 -19,-6 -14,-16 5,-8 12,-13 20,-16 12,-3 19,-1 21,9 3,9 -1,15 -11,20 -4,2 -10,3 -16,3zm439 56c4,-1 7,-1 11,1 3,1 5,4 7,7 1,3 1,6 -1,10 -52,97 -99,146 -140,146 -2,0 -5,0 -8,-1 -32,-5 -52,-45 -60,-119 -24,29 -45,53 -64,72 -17,16 -31,21 -42,16 -12,-4 -18,-15 -17,-34 0,-16 4,-35 11,-57 8,-22 20,-44 35,-65 15,-20 31,-33 49,-39 26,-8 50,0 72,24 2,2 3,5 3,9 0,3 -2,6 -5,8 -3,3 -6,4 -10,3 -4,0 -7,-1 -10,-4 -17,-18 -34,-22 -52,-11 -20,13 -36,36 -50,70 -13,33 -18,57 -15,71 3,-2 6,-5 10,-9 19,-19 43,-46 72,-81 6,-8 10,-14 13,-17 4,-4 9,-6 15,-4 6,2 10,5 10,12 1,21 3,40 6,57 3,17 6,30 9,38 3,9 6,16 10,22 4,6 7,9 9,11 3,1 5,2 7,2 7,2 16,-1 26,-9 11,-7 24,-21 41,-42 16,-21 33,-48 50,-80 2,-4 4,-6 8,-7z"/>
   <path id="_1" class="fil1 str2" d="M2385 2677c-46,0 -52,-6 -54,-41l-15 -275c-1,-33 19,-44 60,-44 3,0 3,-7 0,-7 -17,0 -31,1 -56,1 -13,0 -22,-1 -28,-1 -9,0 -15,5 -21,15l-137 286 -147 -270c-14,-25 -18,-31 -30,-31 -7,0 -22,1 -39,1 -12,0 -31,-1 -47,-1 -2,0 -2,7 0,7 24,0 43,10 57,30l-6 269c0,42 -19,61 -55,61 -2,0 -2,8 0,8 18,0 39,-2 63,-2 25,0 45,2 65,2 2,0 2,-8 0,-8 -41,0 -57,-19 -56,-61l5 -241 165 305c1,3 9,3 10,0l146 -307 13 263c2,35 -7,41 -49,41 -3,0 -3,8 0,8 20,0 46,-2 76,-2 30,0 58,2 80,2 2,0 2,-8 0,-8zm384 0c-34,0 -46,-12 -78,-75l-106 -207c-1,-3 -5,-3 -7,0l-97 210c-28,62 -40,72 -80,72 -4,0 -4,8 0,8 27,0 41,-3 71,-3 28,0 39,3 61,3 4,0 4,-8 0,-8 -45,0 -59,-16 -36,-66l27 -61 87 0 43 84c17,32 12,43 -22,43 -4,0 -4,8 0,8 19,0 37,-3 58,-3 25,0 54,3 79,3 4,0 4,-8 0,-8zm-239 -139l35 -79 40 79 -75 0zm318 -125c35,0 41,7 41,39l0 184c0,35 -8,41 -55,41 -3,0 -3,8 0,8 22,0 50,-2 79,-2 32,0 58,2 80,2 3,0 3,-8 0,-8 -47,0 -54,-6 -54,-41l0 -183c0,-31 6,-40 40,-40 45,0 66,22 69,71 0,2 8,2 8,0 0,-16 3,-73 5,-95 0,-3 -7,-3 -8,0 -4,12 -22,14 -52,14 -22,0 -46,1 -88,1 -36,0 -71,0 -100,-1 -12,0 -35,0 -35,-12 0,-4 -7,-4 -7,0 0,23 -5,76 -8,93 0,2 7,2 7,0 12,-50 34,-71 78,-71zm329 0c36,0 41,7 41,39l0 184c0,35 -8,41 -55,41 -3,0 -3,8 0,8 22,0 50,-2 79,-2 32,0 58,2 80,2 3,0 3,-8 0,-8 -47,0 -54,-6 -54,-41l0 -183c0,-31 6,-40 40,-40 45,0 66,22 69,71 0,2 8,2 8,0 0,-16 3,-73 5,-95 0,-3 -7,-3 -8,0 -4,12 -21,14 -52,14 -22,0 -46,1 -88,1 -36,0 -71,0 -100,-1 -12,0 -35,0 -35,-12 0,-4 -7,-4 -7,0 0,23 -5,76 -8,93 0,2 8,2 8,0 11,-50 33,-71 77,-71zm351 223l0 -182c0,-34 6,-43 47,-43 2,0 2,-7 0,-7 -19,0 -44,2 -72,2 -27,0 -53,-2 -72,-2 -2,0 -2,7 0,7 41,0 48,8 48,42l0 183c0,35 -7,41 -48,41 -2,0 -2,8 0,8 19,0 45,-2 72,-2 28,0 52,2 72,2 2,0 2,-8 0,-8 -41,0 -47,-6 -47,-41zm346 -31c-13,42 -46,70 -85,70l-24 0c-40,0 -46,-8 -46,-41l0 -85c37,0 72,2 109,7 6,2 7,-27 1,-27 -38,5 -73,6 -110,6l0 -82c0,-34 6,-41 46,-41l14 0c40,0 67,23 77,63 0,2 7,2 7,0 0,-15 -2,-46 -2,-66 0,-3 -1,-5 -5,-5l-232 0c-3,0 -3,7 0,7 39,0 46,8 46,42l0 183c0,35 -7,41 -46,41 -3,0 -3,8 0,8l243 0c8,0 10,-3 10,-9 0,-23 2,-53 5,-71 0,-3 -7,-3 -8,0zm149 -152c0,-34 8,-42 49,-42 2,0 2,-7 0,-7 -19,0 -43,2 -71,2 -27,0 -52,-2 -71,-2 -2,0 -2,7 0,7 39,0 45,8 45,42l0 183c0,35 -6,41 -45,41 -2,0 -2,8 0,8l260 0c8,0 10,-3 10,-9 0,-25 2,-57 4,-78 0,-2 -7,-3 -7,0 -13,45 -45,76 -94,76l-31 0c-41,0 -48,-8 -48,-40l-1 -181zm308 0c0,-34 7,-42 49,-42 2,0 2,-7 0,-7 -20,0 -44,2 -72,2 -26,0 -51,-2 -70,-2 -3,0 -3,7 0,7 38,0 44,8 44,42l0 183c0,35 -6,41 -44,41 -3,0 -3,8 0,8l259 0c8,0 10,-3 10,-9 0,-25 2,-57 5,-78 0,-2 -8,-3 -8,0 -13,45 -44,76 -93,76l-32 0c-40,0 -48,-8 -48,-40l0 -181zm373 239c97,0 175,-70 175,-152 0,-70 -59,-143 -156,-143 -82,0 -178,51 -178,149 0,78 63,146 159,146zm19 -13c-72,0 -121,-69 -123,-153 -2,-74 33,-115 96,-115 80,0 126,66 128,143 2,80 -43,125 -101,125z"/>
  </g>
 </g>
</svg>
